<svg height="100.0" preserveAspectRatio="xMinYMin meet" viewBox="-0.62 -0.62 3.24 3.24" width="100.0" xmlns="http://www.w3.org/2000/svg" xmlns:xlink="http://www.w3.org/1999/xlink"><g transform="matrix(1,0,0,-1,0,2.0)"><path d="M 2.5,1.0 L 2.4927770900082953,0.8529742895056592 L 2.4711779206048456,0.7073645169758078 L 2.4354105035983133,0.5645729841183068 L 2.3858192987669304,0.4259748514523659 L 2.322881896522533,0.29290489476100423 L 2.2472044184538182,0.1666446504705974 L 2.159515680044106,0.048410073754532545 L 2.0606601717798223,-0.060660171779820304 L 1.9515899262454695,-0.15951568004410444 L 1.8333553495294046,-0.2472044184538169 L 1.7070951052389978,-0.32288189652253174 L 1.5740251485476362,-0.38581929876692955 L 1.4354270158816953,-0.4354105035983127 L 1.2926354830241944,-0.4711779206048452 L 1.147025710494343,-0.49277709000829506 L 1.0000000000000024,-0.5 L 0.8529742895056617,-0.4927770900082955 L 0.7073645169758103,-0.4711779206048461 L 0.5645729841183093,-0.435410503598314 L 0.42597485145236824,-0.38581929876693133 L 0.29290489476100645,-0.3228818965225342 L 0.16664465047059918,-0.24720441845381957 L 0.0484100737545341,-0.15951568004410732 L -0.060660171779819416,-0.06066017177982319 L -0.15951568004410377,0.04841007375452977 L -0.24720441845381647,0.1666446504705945 L -0.3228818965225315,0.29290489476100146 L -0.38581929876692933,0.42597485145236336 L -0.4354105035983127,0.5645729841183045 L -0.4711779206048452,0.7073645169758058 L -0.4927770900082953,0.8529742895056575 L -0.5,0.9999999999999984 L -0.4927770900082953,1.1470257104943395 L -0.4711779206048461,1.2926354830241913 L -0.43541050359831357,1.4354270158816926 L -0.38581929876693044,1.574025148547634 L -0.32288189652253285,1.707095105238996 L -0.24720441845381824,1.8333553495294028 L -0.15951568004410577,1.951589926245468 L -0.060660171779821415,2.060660171779821 L 0.0484100737545311,2.159515680044105 L 0.16664465047059562,2.2472044184538174 L 0.292904894761002,2.3228818965225315 L 0.42597485145236325,2.385819298766929 L 0.5645729841183038,2.4354105035983125 L 0.7073645169758044,2.4711779206048448 L 0.8529742895056553,2.492777090008295 L 0.9999999999999958,2.5 L 1.1470257104943362,2.4927770900082957 L 1.292635483024187,2.4711779206048465 L 1.435427015881688,2.435410503598315 L 1.5740251485476289,2.3858192987669327 L 1.7070951052389904,2.322881896522536 L 1.8333553495293973,2.247204418453822 L 1.9515899262454623,2.15951568004411 L 2.0606601717798156,2.060660171779827 L 2.1595156800441,1.951589926245475 L 2.247204418453813,1.833355349529411 L 2.322881896522528,1.707095105239005 L 2.385819298766926,1.5740251485476442 L 2.43541050359831,1.435427015881704 L 2.4711779206048434,1.2926354830242035 L 2.4927770900082944,1.1470257104943526 L 2.5,1.0000000000000124 L 2.5,1.0 z" fill="#66cc99" fill-rule="evenodd" opacity="0.6" stroke="#555555" stroke-width="0.06480000000000001"/></g></svg>